<?xml version="1.0" standalone="no"?>
<!DOCTYPE svg PUBLIC "-//W3C//DTD SVG 1.1//EN" "http://www.w3.org/Graphics/SVG/1.1/DTD/svg11.dtd">

<svg width="790.0" height="76.0" viewBox="0 0 790.0 76.0" version="1.1" xmlns="http://www.w3.org/2000/svg" xmlns:xlink="http://www.w3.org/1999/xlink">
<!-- automatically generated by aafigure --><text x="3.0" y="28.900000000000002" font-family="sans-serif" font-size="14.0" fill="#000000" >
  act_1
</text>
<text x="283.0" y="28.900000000000002" font-family="sans-serif" font-size="14.0" fill="#000000" >
  obs_env
</text>
<text x="157.0" y="42.9" font-family="sans-serif" font-size="14.0" fill="#000000" >
  env
</text>
<text x="451.0" y="42.9" font-family="sans-serif" font-size="14.0" fill="#000000" >
  observer
</text>
<text x="311.0" y="56.9" font-family="sans-serif" font-size="14.0" fill="#000000" >
  obs
</text>
<text x="633.0" y="56.9" font-family="sans-serif" font-size="14.0" fill="#000000" >
  features
</text>
<line x1="122.0" y1="10.0" x2="262.0" y2="10.0" stroke="#000000" stroke-width="2.0" />
<line x1="430.0" y1="10.0" x2="612.0" y2="10.0" stroke="#000000" stroke-width="2.0" />
<line x1="122.0" y1="10.0" x2="122.0" y2="38.0" stroke="#000000" stroke-width="2.0" />
<line x1="262.0" y1="10.0" x2="262.0" y2="38.0" stroke="#000000" stroke-width="2.0" />
<line x1="430.0" y1="10.0" x2="430.0" y2="38.0" stroke="#000000" stroke-width="2.0" />
<line x1="612.0" y1="10.0" x2="612.0" y2="38.0" stroke="#000000" stroke-width="2.0" />
<g>
    <line x1="122.0" y1="38.0" x2="111.5" y2="41.5" stroke="#000000" stroke-width="2.0" />
    <line x1="122.0" y1="38.0" x2="111.5" y2="34.5" stroke="#000000" stroke-width="2.0" />
    <line x1="3.0" y1="38.0" x2="122.0" y2="38.0" stroke="#000000" stroke-width="2.0" />
</g>
<g>
    <line x1="430.0" y1="38.0" x2="419.5" y2="41.5" stroke="#000000" stroke-width="2.0" />
    <line x1="430.0" y1="38.0" x2="419.5" y2="34.5" stroke="#000000" stroke-width="2.0" />
    <line x1="262.0" y1="38.0" x2="430.0" y2="38.0" stroke="#000000" stroke-width="2.0" />
</g>
<g>
    <line x1="787.0" y1="38.0" x2="776.5" y2="41.5" stroke="#000000" stroke-width="2.0" />
    <line x1="787.0" y1="38.0" x2="776.5" y2="34.5" stroke="#000000" stroke-width="2.0" />
    <line x1="612.0" y1="38.0" x2="787.0" y2="38.0" stroke="#000000" stroke-width="2.0" />
</g>
<line x1="122.0" y1="38.0" x2="122.0" y2="66.0" stroke="#000000" stroke-width="2.0" />
<line x1="262.0" y1="38.0" x2="262.0" y2="66.0" stroke="#000000" stroke-width="2.0" />
<line x1="430.0" y1="38.0" x2="430.0" y2="66.0" stroke="#000000" stroke-width="2.0" />
<line x1="612.0" y1="38.0" x2="612.0" y2="66.0" stroke="#000000" stroke-width="2.0" />
<line x1="122.0" y1="66.0" x2="262.0" y2="66.0" stroke="#000000" stroke-width="2.0" />
<line x1="430.0" y1="66.0" x2="612.0" y2="66.0" stroke="#000000" stroke-width="2.0" />
</svg>
